<?xml version="1.0" encoding="UTF-8" standalone="no"?>
<svg
   xmlns:dc="http://purl.org/dc/elements/1.1/"
   xmlns:cc="http://creativecommons.org/ns#"
   xmlns:rdf="http://www.w3.org/1999/02/22-rdf-syntax-ns#"
   xmlns:svg="http://www.w3.org/2000/svg"
   xmlns="http://www.w3.org/2000/svg"
   xmlns:xlink="http://www.w3.org/1999/xlink"
   version="1.1"
   id="svg3971"
   height="512"
   width="512">
  <title
     id="title4003">Twenty-Sided Dice</title>
  <defs
     id="defs3973">
    <linearGradient
       id="linearGradient5600">
      <stop
         id="stop5602"
         offset="0"
         style="stop-color:#65007e;stop-opacity:1" />
      <stop
         style="stop-color:#7400b0;stop-opacity:0.67843139"
         offset="0.71145386"
         id="stop5608" />
      <stop
         id="stop5604"
         offset="1"
         style="stop-color:#ff00ff;stop-opacity:1" />
    </linearGradient>
    <radialGradient
       spreadMethod="pad"
       gradientUnits="userSpaceOnUse"
       gradientTransform="translate(0,-9.1847233e-6)"
       r="235.74847"
       fy="433.05692"
       fx="502.69455"
       cy="433.05692"
       cx="502.69455"
       id="radialGradient5606"
       xlink:href="#linearGradient5600" />
    <filter
       height="1.264"
       y="-0.132"
       width="1.264"
       x="-0.132"
       id="filter5636"
       style="color-interpolation-filters:sRGB">
      <feGaussianBlur
         id="feGaussianBlur5638"
         stdDeviation="25.932285" />
    </filter>
  </defs>
  <metadata
     id="metadata3976">
    <rdf:RDF>
      <cc:Work
         rdf:about="">
        <dc:format>image/svg+xml</dc:format>
        <dc:type
           rdf:resource="http://purl.org/dc/dcmitype/StillImage" />
        <cc:license
           rdf:resource="http://creativecommons.org/publicdomain/zero/1.0/" />
        <dc:title>Twenty-Sided Dice</dc:title>
        <dc:creator>
          <cc:Agent>
            <dc:title>Brian Burger/Wirelizard Design</dc:title>
          </cc:Agent>
        </dc:creator>
        <dc:description>Twenty-sided dice (d20) as used in RPGs and wargaming.</dc:description>
      </cc:Work>
      <cc:License
         rdf:about="http://creativecommons.org/publicdomain/zero/1.0/">
        <cc:permits
           rdf:resource="http://creativecommons.org/ns#Reproduction" />
        <cc:permits
           rdf:resource="http://creativecommons.org/ns#Distribution" />
        <cc:permits
           rdf:resource="http://creativecommons.org/ns#DerivativeWorks" />
      </cc:License>
    </rdf:RDF>
  </metadata>
  <g
     transform="translate(-246.69456,-177.05692)"
     id="layer1">
    <path
       style="fill:url(#radialGradient5606);stroke:none;stroke-width:2.79999995;stroke-miterlimit:4;stroke-dasharray:none;fill-opacity:1;fill-rule:nonzero;opacity:0.36"
       d="M 738.44302,433.05692 A 235.74847,235.74847 0 0 1 502.69455,668.80539 235.74847,235.74847 0 0 1 266.94608,433.05692 235.74847,235.74847 0 0 1 502.69455,197.30844 235.74847,235.74847 0 0 1 738.44302,433.05692 Z"
       id="path4141" />
    <path
       style="fill:#000000;stroke:none;stroke-width:2.79999995;stroke-miterlimit:4;stroke-dasharray:none;fill-opacity:1;filter:url(#filter5636)"
       d="M 256 20.251953 A 235.74847 235.74847 0 0 0 20.251953 256 A 235.74847 235.74847 0 0 0 256 491.74805 A 235.74847 235.74847 0 0 0 491.74805 256 A 235.74847 235.74847 0 0 0 256 20.251953 z M 251.95312 39.306641 C 252.74253 39.287231 253.41202 39.543554 253.63867 39.896484 L 363.26367 173.38477 C 365.25214 175.98612 365.23716 175.83303 362.16602 176.08398 L 138.70117 176.67383 C 136.21326 176.64953 136.33881 176.13081 138.19531 173.80664 L 249.75977 40.318359 C 250.25656 39.621879 251.16429 39.333441 251.95312 39.306641 z M 273.37109 51.197266 L 431.73633 146.40039 C 434.05458 147.96871 434.53487 148.28937 431.06055 149.85742 L 378.01953 174.14453 C 375.64779 175.28113 375.32022 175.18887 373.97266 173.55469 L 273.37109 51.197266 z M 226.40234 55.666016 C 226.44761 55.765866 225.73549 56.539488 224.37695 58.111328 L 127.99219 173.2168 C 126.45099 175.14131 125.73979 175.09857 123.35547 174.3125 L 77.650391 153.56836 L 223.70312 57.4375 C 225.53664 56.17813 226.35534 55.566116 226.40234 55.666016 z M 438.81836 155.5918 C 439.5762 155.53756 439.60768 156.24478 439.74805 158.29102 L 444.30078 345.41016 L 382.06836 181.22852 L 436.54297 156.35156 C 437.64976 155.88637 438.36453 155.6243 438.81836 155.5918 z M 73.517578 160.56836 L 120.48828 181.90234 C 122.10522 182.66278 122.12234 182.7811 121.33008 185.10742 L 67.699219 342.62891 L 73.517578 160.56836 z M 365.11719 184.17969 C 368.05671 184.23125 367.35854 185.32163 366.38281 186.87891 L 254.9043 382.9375 C 252.8596 385.99757 253.0689 386.09214 251.10938 383.10547 L 135.07617 187.38281 C 133.46326 184.72303 133.32787 184.72103 136.59375 184.76953 L 365.11719 184.17969 z M 374.22461 189.32227 C 374.43589 189.23376 374.62375 189.8798 375.06836 191.51562 L 442.27734 362.27539 C 443.24637 365.08906 443.33174 366.1009 440.50586 366.74609 L 262.32422 391.28516 C 259.37483 391.75604 259.66604 391.00865 260.89062 388.92383 L 373.12891 191.43164 C 373.78449 190.20625 374.01406 189.41147 374.22461 189.32227 z M 127.90625 191.14844 C 128.1067 191.14976 128.36582 191.65718 129.00391 192.94922 L 244.86914 388.41797 C 245.65307 389.97873 246.06513 391.59906 242.8457 391.11523 L 72.589844 366.49219 C 68.981234 365.82376 69.091307 364.48754 70.060547 360.92773 L 126.98047 193.37109 C 127.40876 192.16734 127.60571 191.33415 127.82422 191.17773 C 127.85141 191.1581 127.87761 191.14825 127.90625 191.14844 z M 83.552734 376.27344 L 246.80859 399.80078 C 249.03551 400.15617 249.32547 401.02938 249.42188 403.17383 L 252.96484 469.62305 C 253.27214 471.8898 252.76648 472.36752 250.60352 471.05664 L 83.552734 376.27344 z M 428.95312 376.44141 L 263.75781 472.06836 C 261.27027 473.33823 261.33089 472.6028 261.14453 470.55078 L 257.51758 402.91992 C 257.53918 401.31247 257.13549 400.21451 259.37305 399.88477 L 428.95312 376.44141 z "
       id="path5610"
       transform="translate(246.69456,177.05692)" />
    <path
       transform="translate(246.69456,177.05692)"
       id="path4135"
       d="M 256 20.251953 A 235.74847 235.74847 0 0 0 20.251953 256 A 235.74847 235.74847 0 0 0 256 491.74805 A 235.74847 235.74847 0 0 0 491.74805 256 A 235.74847 235.74847 0 0 0 256 20.251953 z M 251.95312 39.306641 C 252.74253 39.287231 253.41202 39.543554 253.63867 39.896484 L 363.26367 173.38477 C 365.25214 175.98612 365.23716 175.83303 362.16602 176.08398 L 138.70117 176.67383 C 136.21326 176.64953 136.33881 176.13081 138.19531 173.80664 L 249.75977 40.318359 C 250.25656 39.621879 251.16429 39.333441 251.95312 39.306641 z M 273.37109 51.197266 L 431.73633 146.40039 C 434.05458 147.96871 434.53487 148.28937 431.06055 149.85742 L 378.01953 174.14453 C 375.64779 175.28113 375.32022 175.18887 373.97266 173.55469 L 273.37109 51.197266 z M 226.40234 55.666016 C 226.44761 55.765866 225.73549 56.539488 224.37695 58.111328 L 127.99219 173.2168 C 126.45099 175.14131 125.73979 175.09857 123.35547 174.3125 L 77.650391 153.56836 L 223.70312 57.4375 C 225.53664 56.17813 226.35534 55.566116 226.40234 55.666016 z M 438.81836 155.5918 C 439.5762 155.53756 439.60768 156.24478 439.74805 158.29102 L 444.30078 345.41016 L 382.06836 181.22852 L 436.54297 156.35156 C 437.64976 155.88637 438.36453 155.6243 438.81836 155.5918 z M 73.517578 160.56836 L 120.48828 181.90234 C 122.10522 182.66278 122.12234 182.7811 121.33008 185.10742 L 67.699219 342.62891 L 73.517578 160.56836 z M 365.11719 184.17969 C 368.05671 184.23125 367.35854 185.32163 366.38281 186.87891 L 254.9043 382.9375 C 252.8596 385.99757 253.0689 386.09214 251.10938 383.10547 L 135.07617 187.38281 C 133.46326 184.72303 133.32787 184.72103 136.59375 184.76953 L 365.11719 184.17969 z M 374.22461 189.32227 C 374.43589 189.23376 374.62375 189.8798 375.06836 191.51562 L 442.27734 362.27539 C 443.24637 365.08906 443.33174 366.1009 440.50586 366.74609 L 262.32422 391.28516 C 259.37483 391.75604 259.66604 391.00865 260.89062 388.92383 L 373.12891 191.43164 C 373.78449 190.20625 374.01406 189.41147 374.22461 189.32227 z M 127.90625 191.14844 C 128.1067 191.14976 128.36582 191.65718 129.00391 192.94922 L 244.86914 388.41797 C 245.65307 389.97873 246.06513 391.59906 242.8457 391.11523 L 72.589844 366.49219 C 68.981234 365.82376 69.091307 364.48754 70.060547 360.92773 L 126.98047 193.37109 C 127.40876 192.16734 127.60571 191.33415 127.82422 191.17773 C 127.85141 191.1581 127.87761 191.14825 127.90625 191.14844 z M 83.552734 376.27344 L 246.80859 399.80078 C 249.03551 400.15617 249.32547 401.02938 249.42188 403.17383 L 252.96484 469.62305 C 253.27214 471.8898 252.76648 472.36752 250.60352 471.05664 L 83.552734 376.27344 z M 428.95312 376.44141 L 263.75781 472.06836 C 261.27027 473.33823 261.33089 472.6028 261.14453 470.55078 L 257.51758 402.91992 C 257.53918 401.31247 257.13549 400.21451 259.37305 399.88477 L 428.95312 376.44141 z "
       style="fill:#9e9e9e;stroke:none;stroke-width:2.79999995;stroke-miterlimit:4;stroke-dasharray:none;fill-opacity:1" />
  </g>
</svg>
